<svg width="745" height="270" viewBox="0 0 745 270" fill="none" xmlns="http://www.w3.org/2000/svg">
<path d="M354.595 9.72042C346.585 9.72042 338.575 9.72042 330.565 9.72042C322.555 9.72042 314.545 9.72042 306.535 9.72042C306.535 9.85623 306.535 9.99203 306.535 10.1278C306.535 10.2636 306.521 10.3383 306.494 10.3519C302.489 11.3297 299.787 13.5636 298.389 17.0538C298.389 17.597 298.389 18.1402 298.389 18.6834C298.389 18.8192 298.389 18.955 298.389 19.0908C298.253 19.0908 298.117 19.0908 297.981 19.0908C297.981 27.1031 297.981 35.1155 297.981 43.1278C297.981 51.1402 297.981 59.1525 297.981 67.1649C297.981 75.1772 297.981 83.1896 297.981 91.2019C297.981 99.2142 297.981 107.227 297.981 115.239C297.981 123.251 297.981 131.264 297.981 139.276C297.981 147.288 298.049 155.301 298.185 163.313C298.185 163.449 298.253 163.585 298.389 163.72C299.298 168.107 301.885 170.809 306.148 171.828C306.27 171.855 306.399 171.869 306.535 171.869C308.109 172.344 310.01 172.561 312.237 172.52C320.247 172.357 328.257 172.276 336.267 172.276C344.277 172.276 352.287 172.276 360.297 172.276C368.307 172.276 376.317 172.276 384.327 172.276C392.337 172.276 400.347 172.276 408.358 172.276C411.752 172.276 415.146 172.208 418.54 172.072C418.676 172.072 418.811 172.004 418.947 171.869C423.549 171.04 426.333 168.338 427.297 163.761C427.297 163.734 427.364 163.72 427.5 163.72C427.636 163.585 427.704 163.449 427.704 163.313C427.84 158.153 427.908 152.992 427.908 147.832C427.908 139.819 427.908 131.807 427.908 123.795C427.908 115.782 427.908 107.77 427.908 99.7575C427.908 91.7451 427.908 83.7328 427.908 75.7204C427.908 67.7081 427.989 59.6957 428.152 51.6834C428.193 49.4426 427.975 47.5414 427.5 45.9797C426.876 44.9747 426.156 44.0649 425.342 43.25C421.337 39.2575 417.284 35.2988 413.184 31.3741C412.152 30.3828 411.147 29.3575 410.17 28.2982C406.328 24.1155 402.384 20.0414 398.338 16.076C396.288 14.0525 394.062 12.2056 391.659 10.5352C391.659 10.3994 391.625 10.2976 391.557 10.2297C391.489 10.1618 391.387 10.1278 391.251 10.1278C391.115 9.99203 390.98 9.92413 390.844 9.92413C386.771 9.78833 382.698 9.72042 378.625 9.72042C370.615 9.72042 362.605 9.72042 354.595 9.72042ZM331.379 16.2389C339.389 16.2389 347.4 16.2389 355.41 16.2389C363.42 16.2389 371.43 16.2389 379.44 16.2389C382.155 16.2389 384.87 16.2389 387.586 16.2389C387.586 16.7822 387.586 17.3254 387.586 17.8686C387.586 18.0044 387.586 18.1402 387.586 18.276C387.586 26.2883 387.654 34.3007 387.789 42.313C387.789 42.4488 387.857 42.5846 387.993 42.7204C388.672 46.2377 390.844 48.2679 394.51 48.8112C394.645 48.8247 394.781 48.8315 394.917 48.8315C396.492 49.3068 398.392 49.5241 400.619 49.4834C407.814 49.3204 415.01 49.2389 422.205 49.2389C422.205 55.0784 422.205 60.918 422.205 66.7575C422.205 74.7698 422.205 82.7822 422.205 90.7945C422.205 98.8068 422.205 106.819 422.205 114.832C422.205 122.844 422.205 130.856 422.205 138.869C422.205 146.881 422.205 154.893 422.205 162.906C422.07 162.906 421.995 162.926 421.981 162.967C421.248 165.438 419.286 166.64 416.096 166.572C415.96 166.436 415.825 166.369 415.689 166.369C411.344 166.233 407 166.165 402.655 166.165C394.645 166.165 386.635 166.165 378.625 166.165C370.615 166.165 362.605 166.165 354.595 166.165C346.585 166.165 338.575 166.165 330.565 166.165C322.555 166.165 314.545 166.165 306.535 166.165C306.399 166.165 306.277 166.138 306.168 166.083C304.729 165.377 303.901 164.046 303.684 162.091C303.684 154.893 303.684 147.696 303.684 140.498C303.684 132.486 303.684 124.474 303.684 116.461C303.684 108.449 303.684 100.436 303.684 92.4241C303.684 84.4118 303.684 76.3994 303.684 68.3871C303.684 60.3747 303.684 52.3624 303.684 44.3501C303.684 36.3377 303.684 28.3254 303.684 20.313C303.684 20.1772 303.684 20.0414 303.684 19.9056C303.684 19.634 303.684 19.3624 303.684 19.0908C304.457 17.8143 305.55 16.8908 306.962 16.3204C307.084 16.2661 307.213 16.2389 307.349 16.2389C315.359 16.2389 323.369 16.2389 331.379 16.2389ZM395.731 43.5352C395.596 43.5352 395.467 43.5149 395.345 43.4741C394.326 43.1754 393.641 42.5167 393.288 41.4982C393.288 41.3624 393.288 41.2266 393.288 41.0908C393.288 33.8933 393.288 26.6957 393.288 19.4982C397.361 23.4365 401.454 27.3544 405.568 31.2519C409.613 35.0815 413.53 39.0402 417.318 43.1278V43.3315C410.122 43.4673 402.927 43.5352 395.731 43.5352ZM324.863 72.0538C324.863 72.1896 324.863 72.3254 324.863 72.4612C324.863 72.597 324.849 72.6717 324.822 72.6852C323.749 72.9297 322.948 73.3982 322.419 74.0908C322.066 76.6167 323.016 77.8389 325.27 77.7575C325.406 77.7575 325.542 77.7575 325.677 77.7575C327.252 78.2328 329.153 78.45 331.379 78.4093C339.389 78.2463 347.4 78.1649 355.41 78.1649C363.42 78.1649 371.43 78.1649 379.44 78.1649C386.907 78.1649 394.374 78.097 401.841 77.9612C401.977 77.9612 402.112 77.8933 402.248 77.7575C403.972 77.3093 404.597 75.8223 404.122 73.2963C404.095 73.147 404.013 73.0044 403.877 72.8686C403.742 72.7328 403.606 72.597 403.47 72.4612C403.334 72.3254 403.192 72.2507 403.042 72.2371C401.033 72.1149 399.003 72.0538 396.953 72.0538C388.943 72.0538 380.933 72.0538 372.923 72.0538C364.913 72.0538 356.903 72.0538 348.893 72.0538C340.883 72.0538 332.873 72.0538 324.863 72.0538ZM324.048 53.313C324.048 53.4488 324.048 53.5846 324.048 53.7204C323.912 53.7204 323.817 53.7544 323.763 53.8223C323.342 54.3655 322.894 54.8747 322.419 55.3501C322.351 56.9254 322.779 57.9846 323.702 58.5278C323.797 58.5821 323.912 58.6093 324.048 58.6093C325.623 59.0846 327.524 59.3019 329.75 59.2612C337.76 59.0982 345.77 59.0167 353.78 59.0167C361.519 59.0167 369.257 58.9488 376.996 58.813C377.132 58.813 377.268 58.7451 377.403 58.6093C377.539 58.6093 377.641 58.5754 377.709 58.5075C379.447 56.7556 379.345 55.1599 377.403 53.7204C375.978 53.2451 374.213 53.0278 372.109 53.0686C364.098 53.2315 356.088 53.313 348.078 53.313C340.068 53.313 332.058 53.313 324.048 53.313ZM359.523 93.9723C354.5 94.7463 350.142 96.2606 346.449 98.5149C341.467 101.557 337.665 105.774 335.045 111.165C333.714 113.895 332.628 116.882 331.787 120.128C331.773 121.078 331.753 122.029 331.726 122.98C331.644 125.818 331.861 128.385 332.377 130.68C333.83 137.157 336.45 142.501 340.238 146.711C344.039 150.921 349.219 153.786 355.776 155.307C359.034 156.054 362.843 156.197 367.201 155.735C374.315 154.988 379.962 152.707 384.144 148.891C386.275 146.935 388.21 144.762 389.948 142.372C393.288 137.755 394.924 131.427 394.856 123.387C394.829 119.381 394.258 115.952 393.145 113.1C392.548 111.565 391.835 110.16 391.007 108.883C389.446 106.439 387.674 104.164 385.692 102.059C384.701 101.014 383.635 100.029 382.494 99.1056C378.109 95.5204 371.932 93.7075 363.963 93.6667C362.469 93.6531 360.989 93.755 359.523 93.9723ZM349.646 102.487C352.294 101.102 355.192 100.043 358.342 99.3093C359.374 99.0649 360.426 98.868 361.499 98.7186C365.3 98.2025 368.748 98.5624 371.844 99.7982C373.419 100.423 374.865 101.088 376.181 101.795C381.395 104.592 385.332 108.666 387.993 114.017C389.337 116.746 390.002 120.141 389.989 124.202C389.975 128.235 389.371 131.657 388.176 134.469C385.732 140.104 382.033 144.47 377.077 147.567C374.593 149.115 371.586 150.194 368.056 150.806C364.078 151.485 360.379 151.43 356.957 150.643C350.278 149.122 345.309 145.951 342.05 141.13C340.435 138.753 339.111 136.078 338.079 133.104C336.939 129.817 336.471 125.899 336.674 121.35C337.367 120.006 337.882 118.396 338.222 116.522C338.276 116.21 338.364 115.891 338.487 115.565C340.645 109.617 344.365 105.257 349.646 102.487ZM351.316 122.817C349.565 122.667 348.35 123.129 347.671 124.202C347.685 124.609 347.78 124.949 347.956 125.22C350.142 128.412 352.531 131.427 355.124 134.265C355.328 134.482 355.484 134.699 355.593 134.917C356.34 136.275 357.636 137.049 359.482 137.239C360.324 136.994 360.942 136.546 361.336 135.895C361.458 135.704 361.587 135.535 361.723 135.385C363.759 133.226 365.796 131.06 367.832 128.887C371.715 124.759 375.584 120.617 379.44 116.461C379.576 116.461 379.643 116.448 379.643 116.42C379.983 114.601 379.643 113.392 378.625 112.795C378.354 112.795 378.123 112.733 377.933 112.611C377.24 112.136 376.596 112.258 375.998 112.978C374.383 114.92 372.699 116.78 370.948 118.559C366.943 122.565 362.985 126.619 359.075 130.72C356.767 128.683 354.649 126.443 352.721 123.998C352.613 123.862 352.525 123.733 352.457 123.611C352.185 123.136 351.805 122.871 351.316 122.817ZM95.3131 29.663C95.2045 29.8124 95.1502 29.955 95.1502 30.0908C95.0144 33.7575 94.9465 37.4241 94.9465 41.0908C93.0459 41.0908 91.152 41.0297 89.2648 40.9075C86.088 40.7173 83.5017 41.0501 81.5059 41.9056C81.5059 42.0414 81.5059 42.1772 81.5059 42.313C81.3702 42.313 81.2344 42.313 81.0986 42.313C81.0986 50.3254 81.0986 58.3377 81.0986 66.3501C81.0986 74.3624 81.0986 82.3747 81.0986 90.3871C81.0986 98.3994 81.0986 106.412 81.0986 114.424C81.0986 122.436 81.0986 130.449 81.0986 138.461C81.0986 142.399 81.1665 146.338 81.3023 150.276C81.3023 150.412 81.3702 150.548 81.5059 150.683C81.5874 151.539 82.1304 151.946 83.1351 151.906C83.2709 151.906 83.4066 151.906 83.5424 151.906C85.1037 152.381 87.0044 152.598 89.2445 152.557C97.2545 152.394 105.265 152.313 113.275 152.313C121.285 152.313 129.295 152.313 137.305 152.313C145.315 152.313 153.325 152.401 161.335 152.578C162.625 152.605 163.575 152.381 164.186 151.906C166.209 151.349 166.983 149.434 166.508 146.161C166.318 144.83 166.223 143.486 166.223 142.128C166.223 140.77 166.223 139.412 166.223 138.054C171.653 138.054 177.084 137.986 182.514 137.85C182.65 137.85 182.786 137.782 182.922 137.646C183.057 137.511 183.193 137.375 183.329 137.239C183.804 135.677 183.987 133.776 183.879 131.535C183.784 129.362 183.736 127.19 183.736 125.017C189.846 125.017 195.955 124.949 202.064 124.813V124.609C202.906 124.365 203.551 123.93 203.999 123.306C204.067 123.224 204.101 123.115 204.101 122.98C204.236 122.98 204.338 122.946 204.406 122.878C204.474 122.81 204.508 122.708 204.508 122.572C204.508 119.72 204.508 116.869 204.508 114.017C204.508 106.004 204.508 97.992 204.508 89.9797C204.508 81.9673 204.508 73.955 204.508 65.9426C204.508 57.9303 204.508 49.918 204.508 41.9056C204.508 41.7698 204.474 41.668 204.406 41.6001C204.338 41.5322 204.236 41.4982 204.101 41.4982C203.218 40.3439 202.261 39.2642 201.229 38.2593C197.17 34.3075 193.192 30.2809 189.296 26.1797C185.372 22.0784 181.211 18.2217 176.812 14.6093C176.676 14.4735 176.541 14.4056 176.405 14.4056C170.974 14.2698 165.544 14.2019 160.113 14.2019C152.103 14.2019 144.093 14.2019 136.083 14.2019C128.073 14.2019 120.063 14.2019 112.053 14.2019C112.053 14.3377 112.053 14.4735 112.053 14.6093C112.053 14.7451 112.053 14.8809 112.053 15.0167C110.804 14.9896 109.962 15.3834 109.528 16.1982C109.446 16.3612 109.405 16.5105 109.405 16.6464C109.27 20.4488 109.202 24.2513 109.202 28.0538C107.301 28.0538 105.407 27.9926 103.52 27.8704C100.343 27.6803 97.7569 28.013 95.7611 28.8686C95.6254 29.1402 95.476 29.405 95.3131 29.663ZM191.475 41.2945C187.673 41.1587 183.879 40.9618 180.091 40.7038C179.942 40.6902 179.799 40.5476 179.663 40.276C178.781 39.3933 178.394 37.8926 178.502 35.7741C178.733 31.8494 178.849 27.918 178.849 23.9797C182.922 27.918 186.961 31.8902 190.966 35.8963C192.527 37.4581 194.054 39.0538 195.548 40.6834C194.529 41.1587 193.172 41.3624 191.475 41.2945ZM174.368 53.7204C173.35 54.1957 171.993 54.3994 170.296 54.3315C166.358 54.1957 162.421 54.0599 158.484 53.9241C158.348 53.9241 158.213 53.8562 158.077 53.7204C157.235 51.0315 156.909 47.7723 157.099 43.9426C157.208 41.634 157.262 39.3254 157.262 37.0167C159.475 38.8772 161.579 40.8463 163.575 42.9241C167.105 46.5908 170.703 50.1896 174.368 53.7204ZM86.8007 47.6093C86.8007 47.2019 86.8007 46.7945 86.8007 46.3871C94.8108 46.3871 102.821 46.3871 110.831 46.3871C118.569 46.3871 126.308 46.455 134.047 46.5908C134.182 46.5908 134.318 46.6587 134.454 46.7945C134.915 48.3834 135.099 50.2846 135.004 52.4982C134.732 58.5278 134.82 64.2315 135.268 69.6093C136.232 71.2254 137.733 72.2982 139.769 72.8278C139.891 72.855 140.02 72.8686 140.156 72.8686C141.31 73.3439 142.803 73.4865 144.636 73.2963C144.772 73.2828 144.908 73.276 145.043 73.276C150.067 73.276 155.09 73.276 160.113 73.276C160.249 73.276 160.385 73.276 160.521 73.276C160.521 79.6587 160.521 86.0414 160.521 92.4241C160.521 100.436 160.521 108.449 160.521 116.461C160.521 124.474 160.602 132.486 160.765 140.498C160.806 142.739 160.588 144.64 160.113 146.202C159.706 146.202 159.299 146.202 158.891 146.202C150.881 146.202 142.871 146.202 134.861 146.202C126.851 146.202 118.841 146.202 110.831 146.202C102.821 146.202 94.8108 146.202 86.8007 146.202C86.8007 145.523 86.8007 144.844 86.8007 144.165C86.8007 136.153 86.8007 128.14 86.8007 120.128C86.8007 112.115 86.8007 104.103 86.8007 96.0908C86.8007 88.0785 86.8007 80.0661 86.8007 72.0538C86.8007 64.0414 86.8007 56.0291 86.8007 48.0167C86.8007 47.8809 86.8007 47.7451 86.8007 47.6093ZM162.964 20.313C165.951 20.313 168.938 20.313 171.925 20.313C172.712 20.6118 173.052 21.4266 172.943 22.7575H173.147C173.147 28.3254 173.214 33.8933 173.35 39.4612H173.554C173.676 42.8698 175.04 45.0223 177.647 45.9186C177.769 45.9593 177.898 45.9797 178.034 45.9797C179.324 46.455 180.953 46.6655 182.922 46.6112C188.352 46.4618 193.783 46.3871 199.213 46.3871C199.213 54.3994 199.213 62.4118 199.213 70.4241C199.213 78.4365 199.213 86.4488 199.213 94.4612C199.213 102.474 199.213 110.486 199.213 118.498C199.213 118.77 199.213 119.041 199.213 119.313C199.077 119.313 198.942 119.313 198.806 119.313C193.783 119.313 188.759 119.313 183.736 119.313C183.736 115.918 183.736 112.523 183.736 109.128C183.736 101.115 183.736 93.1031 183.736 85.0908C183.736 77.0785 183.818 69.0661 183.981 61.0538C184.021 58.813 183.804 56.9118 183.329 55.3501C181.197 53.1365 179.052 50.9365 176.894 48.75C172.902 44.7303 168.904 40.7173 164.899 36.7112C163.881 35.6926 162.917 34.6334 162.007 33.5334C160.147 31.2926 157.887 29.4661 155.226 28.0538C155.09 27.918 154.954 27.8501 154.818 27.8501C149.524 27.7143 144.229 27.6463 138.934 27.6463C130.924 27.6463 122.914 27.6463 114.904 27.6463C114.904 27.5105 114.904 27.3747 114.904 27.2389C114.904 24.9303 114.904 22.6217 114.904 20.313C122.914 20.313 130.924 20.313 138.934 20.313C146.944 20.313 154.954 20.313 162.964 20.313ZM166.223 69.2019C166.087 69.2019 165.985 69.168 165.917 69.1001C162.998 65.9087 160.113 62.6834 157.262 59.4241C164.322 59.4241 171.382 59.492 178.441 59.6278V59.8315C178.441 67.8439 178.441 75.8562 178.441 83.8686C178.441 91.8809 178.441 99.8933 178.441 107.906C178.441 115.918 178.441 123.93 178.441 131.943C178.306 132.214 178.156 132.364 177.993 132.391C175.441 132.635 172.875 132.757 170.296 132.757C169.209 132.757 168.15 132.642 167.119 132.411C166.155 132.194 165.856 131.223 166.223 129.498C166.223 129.227 166.223 128.955 166.223 128.683C166.223 120.671 166.223 112.659 166.223 104.646C166.223 96.634 166.223 88.6217 166.223 80.6093C166.223 80.4735 166.223 80.3377 166.223 80.2019C166.223 76.5352 166.223 72.8686 166.223 69.2019ZM144.392 46.6519C142.505 44.4519 140.278 42.5982 137.712 41.0908C137.576 40.955 137.441 40.8871 137.305 40.8871C133.096 40.7513 128.888 40.6834 124.679 40.6834C116.669 40.6834 108.659 40.6834 100.649 40.6834C100.649 40.5476 100.649 40.4118 100.649 40.276C100.649 38.1031 100.649 35.9303 100.649 33.7575C108.659 33.7575 116.669 33.7575 124.679 33.7575C132.689 33.7575 140.699 33.7575 148.709 33.7575C149.388 33.7575 150.067 33.7575 150.746 33.7575C151.207 33.8389 151.533 34.0834 151.723 34.4908C151.75 34.5451 151.832 34.5723 151.967 34.5723C151.967 40.955 151.967 47.3377 151.967 53.7204C151.967 53.8562 151.967 53.992 151.967 54.1278C151.832 54.7389 151.621 54.7797 151.336 54.25C151.01 53.6933 150.603 53.1772 150.114 52.7019C148.118 50.7735 146.211 48.7568 144.392 46.6519ZM157.262 67.5723C157.126 67.5723 156.991 67.5723 156.855 67.5723C151.234 67.7624 145.939 67.6266 140.971 67.1649C140.835 67.1649 140.767 67.1581 140.767 67.1445C140.183 61.9025 139.979 56.3414 140.156 50.4612C144.229 54.3994 148.268 58.3717 152.273 62.3778C153.97 64.0754 155.633 65.8068 157.262 67.5723ZM101.463 127.054C101.463 127.19 101.463 127.325 101.463 127.461C101.463 127.597 101.436 127.678 101.382 127.706C100.594 128.059 99.9427 128.52 99.4268 129.091C99.3453 130.53 99.6508 131.583 100.343 132.248C100.411 132.316 100.513 132.35 100.649 132.35C102.21 132.825 104.111 133.043 106.351 133.002C113.41 132.839 120.47 132.69 127.53 132.554C127.666 132.554 127.801 132.486 127.937 132.35C128.765 131.956 129.071 130.999 128.854 129.478C128.691 128.364 128.107 127.78 127.102 127.726C124.265 127.549 121.421 127.461 118.569 127.461V127.257C112.867 127.122 107.165 127.054 101.463 127.054ZM101.056 74.9056C102.617 75.3809 104.518 75.5914 106.758 75.5371C112.324 75.3877 117.891 75.2451 123.457 75.1093C123.593 75.1093 123.728 75.0414 123.864 74.9056C124.326 74.8241 124.638 74.5661 124.801 74.1315C125.48 72.271 125.032 70.8994 123.457 70.0167V69.813C115.854 69.6772 108.251 69.6093 100.649 69.6093C100.649 69.7451 100.649 69.8809 100.649 70.0167C100.649 70.1525 100.615 70.2544 100.547 70.3223C100.207 70.6618 99.834 70.9673 99.4268 71.2389C99.2774 73.018 99.7051 74.213 100.71 74.8241C100.805 74.8784 100.92 74.9056 101.056 74.9056ZM141.785 108.272C139.368 108.598 137.21 109.182 135.309 110.024C132.064 111.477 128.63 111.667 125.005 110.594C118.447 108.666 111.415 107.899 103.907 108.293C101.966 108.401 100.472 108.951 99.4268 109.943C99.2095 111.654 99.5422 112.767 100.425 113.283C101.592 113.962 102.902 114.146 104.355 113.833C107.247 113.209 110.091 113.059 112.888 113.385C115.684 113.711 118.223 114.282 120.504 115.096C123.423 116.142 126.98 116.482 131.175 116.115C134.732 115.816 137.862 114.981 140.563 113.609C140.699 113.609 140.835 113.609 140.971 113.609C142.871 113.609 144.772 113.609 146.673 113.609C146.808 113.609 146.903 113.575 146.958 113.507C147.935 112.353 148.247 111.165 147.894 109.943C146.836 108.408 144.799 107.851 141.785 108.272ZM148.302 90.7945C148.03 90.7945 147.867 90.7402 147.813 90.6315C147.365 89.7488 146.578 89.2803 145.451 89.226C141.921 89.0494 138.975 89.5247 136.612 90.6519C135.567 91.1408 134.325 91.555 132.886 91.8945C132.234 92.0439 131.528 92.1525 130.768 92.2204C128.691 92.4105 126.831 92.234 125.188 91.6908C119.309 89.7081 112.216 88.8933 103.907 89.2464C102.006 89.3278 100.513 89.8439 99.4268 90.7945C99.2095 92.7772 99.7594 93.9858 101.076 94.4204C102.217 94.7871 103.71 94.9025 105.557 94.7667C109.141 94.4951 112.508 94.6309 115.657 95.1741C118.074 95.5815 120.531 96.0636 123.029 96.6204C123.857 96.8105 124.686 96.9463 125.514 97.0278C129.804 97.4488 133.436 97.0618 136.409 95.8667C139.423 94.6581 142.844 94.3254 146.673 94.8686C146.673 94.7328 146.7 94.6513 146.754 94.6241C147.922 93.9723 148.438 92.6957 148.302 90.7945ZM655.176 69.6093V69.4056C649.61 69.2698 644.044 69.2019 638.477 69.2019C638.477 69.3377 638.477 69.4735 638.477 69.6093C638.477 69.7451 638.457 69.8198 638.416 69.8334C637.642 70.105 637.12 70.5735 636.848 71.2389C636.902 74.7155 639.088 76.1822 643.406 75.6389C645.13 75.4217 646.874 75.4013 648.639 75.5778C652.169 75.9309 654.62 75.2994 655.991 73.6834C656.792 72.013 656.554 70.7432 655.278 69.8741C655.21 69.8334 655.176 69.7451 655.176 69.6093ZM493.257 96.3149C493.855 95.5001 493.794 94.6105 493.074 93.6464C492.938 93.6464 492.837 93.6124 492.769 93.5445C492.536 93.3121 492.299 93.0744 492.056 92.8315C491.925 92.7008 491.789 92.565 491.649 92.4241C489.249 90.0051 486.873 87.5607 484.521 85.0908C484.019 84.2352 483.428 83.4679 482.749 82.7889C482.342 82.3815 481.84 82.1439 481.242 82.076C478.989 81.8179 477.638 82.5513 477.19 84.276C477.746 86.1772 478.704 87.6574 480.061 88.7167C481.446 89.7895 482.661 91.0254 483.706 92.4241C482.485 92.4241 481.263 92.4241 480.041 92.4241C480.337 92.5333 480.649 92.6284 480.978 92.7093C477.045 92.8206 473.067 92.936 469.044 93.0556C467.075 93.1099 465.446 92.8994 464.156 92.4241C462.948 92.4241 461.733 92.363 460.511 92.2408C457.022 91.8741 454.572 92.4784 453.16 94.0538C452.956 96.1451 453.513 97.476 454.829 98.0463C454.938 98.1007 455.06 98.1278 455.196 98.1278C460.491 98.1278 465.786 98.1278 471.08 98.1278C472.655 98.6031 474.556 98.8204 476.783 98.7797C479.084 98.7275 481.385 98.6732 483.686 98.6167C481.505 101.173 479.204 103.726 476.783 106.276C476.905 109.25 478.235 110.262 480.774 109.311C481.493 109.04 482.132 108.646 482.688 108.13C485.899 105.132 488.872 101.907 491.608 98.4538C491.696 98.3488 491.784 98.2401 491.873 98.1278C492.341 97.53 492.802 96.9257 493.257 96.3149ZM524.436 69.6093C524.3 69.6093 524.164 69.6093 524.028 69.6093C518.734 69.6093 513.439 69.6093 508.144 69.6093C508.144 69.7451 508.11 69.847 508.042 69.9149C507.974 69.9828 507.872 70.0167 507.737 70.0167C507.601 70.0167 507.519 70.0439 507.492 70.0982C507.302 70.5056 506.976 70.7501 506.515 70.8315C506.203 74.5389 508.117 76.1618 512.258 75.7001C514.538 75.442 516.833 75.3673 519.141 75.476C521.245 75.571 522.996 75.347 524.395 74.8038C524.558 74.7359 524.707 74.634 524.843 74.4982C524.979 74.4982 525.067 74.471 525.108 74.4167C526.112 72.7871 525.888 71.1846 524.436 69.6093ZM609.519 39.0945C607.224 37.3291 604.713 35.7198 601.984 34.2667C596.798 31.5371 590.363 29.9754 582.678 29.5815C580.465 29.4593 578.565 29.6291 576.976 30.0908C576.84 30.0908 576.705 30.0976 576.569 30.1112C571.926 30.4778 567.853 31.4217 564.35 32.9426C564.214 32.9426 564.133 32.9698 564.106 33.0241C563.916 33.4315 563.454 33.5402 562.721 33.3501C562.721 33.4859 562.721 33.6217 562.721 33.7575C562.585 33.7575 562.456 33.7778 562.334 33.8186C560.04 34.7556 557.861 35.8217 555.797 37.0167C555.797 37.1525 555.797 37.2883 555.797 37.4241C551.249 40.1945 547.339 43.6099 544.067 47.6704C540.496 52.1247 537.836 57.5229 536.084 63.8649C535.867 64.6525 535.704 65.4877 535.595 66.3704C535.365 68.2717 535.039 70.0303 534.618 71.6464C534.387 79.8896 535.487 86.8087 537.917 92.4038C540.334 97.9852 543.341 102.969 546.938 107.356C548.798 109.61 550.563 111.905 552.233 114.241C552.708 114.906 553.15 115.612 553.557 116.359C555.974 120.8 556.856 126.809 556.204 134.387C557.223 135.949 558.614 137.096 560.379 137.83C560.732 137.979 561.105 138.054 561.499 138.054C561.608 138.57 561.621 139.656 561.54 141.313C561.418 143.581 561.696 145.401 562.375 146.772C562.823 147.682 563.481 148.307 564.35 148.646C564.948 148.864 565.626 148.999 566.387 149.054C566.848 150.208 566.991 151.702 566.814 153.535C566.801 153.671 566.794 153.807 566.794 153.943C568.002 156.822 570.079 158.743 573.026 159.707C573.962 160.006 574.879 160.23 575.775 160.38C579.563 160.991 583.35 160.998 587.138 160.4C591.32 159.721 594.042 157.569 595.304 153.943C595.291 152.313 595.359 150.69 595.508 149.074C595.508 149.061 595.576 149.054 595.712 149.054C597.965 148.999 599.513 148.212 600.355 146.691C600.382 146.636 600.463 146.609 600.599 146.609C600.762 144.056 600.898 141.476 601.006 138.869C601.006 138.733 601.006 138.597 601.006 138.461C602.595 137.606 604.054 136.614 605.385 135.487C605.453 135.433 605.487 135.338 605.487 135.202C605.487 135.066 605.487 134.93 605.487 134.794C605.948 133.504 606.132 131.875 606.036 129.906C605.941 128.004 605.894 126.103 605.894 124.202C607.523 117.819 610.286 112.57 614.182 108.456C618.079 104.327 621.378 99.5741 624.079 94.1963C625.315 91.7112 626.177 88.8118 626.666 85.4982C626.666 85.3624 626.666 85.2266 626.666 85.0908C627.779 81.4513 628.118 77.1124 627.684 72.0741C627.684 72.0605 627.616 72.0538 627.48 72.0538C627.48 71.918 627.48 71.7822 627.48 71.6464C627.236 65.2365 625.878 59.9402 623.407 55.7575C622.81 54.1822 622.063 52.7358 621.167 51.4186C617.923 46.7062 614.04 42.5982 609.519 39.0945ZM563.128 88.7575C563.902 87.3587 565.396 86.7272 567.609 86.863C568.396 86.9173 569.075 87.1414 569.645 87.5352C570.446 89.7217 570.921 92.1661 571.07 94.8686H570.867C565.64 95.6155 563.06 93.7143 563.128 89.1649C563.128 89.0291 563.128 88.8933 563.128 88.7575ZM592.8 88.4723C593.098 87.6846 593.662 87.1007 594.49 86.7204C597.612 86.4488 599.364 87.5352 599.744 89.9797C599.771 90.1155 599.785 90.2513 599.785 90.3871C599.445 93.7007 597.273 95.2013 593.268 94.8889C593.132 94.8754 592.996 94.8686 592.861 94.8686C591.557 94.6785 591.136 93.592 591.598 91.6093C591.625 91.4735 591.639 91.3377 591.639 91.2019C592.046 90.3735 592.433 89.4636 592.8 88.4723ZM592.351 36.5278C598.461 38.2797 603.722 40.9414 608.134 44.513C612.573 48.1118 616.083 52.6544 618.663 58.1408C619.952 60.884 620.93 63.9056 621.595 67.2056C622.111 69.7587 622.349 72.597 622.308 75.7204C622.199 83.7056 620.584 90.1223 617.461 94.9704C614.311 99.8593 610.89 104.463 607.197 108.782C603.491 113.1 601.359 118.926 600.803 126.259C600.667 128.147 600.538 130.035 600.416 131.922C600.402 132.072 600.321 132.207 600.171 132.33C599.737 132.71 599.065 132.853 598.155 132.757C596.255 132.757 594.374 132.893 592.514 133.165C590.084 133.504 588.978 132.69 589.195 130.72C589.195 130.585 589.195 130.449 589.195 130.313C589.195 130.177 589.195 130.041 589.195 129.906C589.195 129.77 589.195 129.634 589.195 129.498C589.181 127.869 589.181 126.239 589.195 124.609C589.67 123.591 589.908 122.233 589.908 120.535C589.894 119.367 589.928 118.145 590.01 116.869C590.2 114.207 590.335 111.491 590.417 108.72C590.417 108.585 590.417 108.449 590.417 108.313C590.417 108.041 590.417 107.77 590.417 107.498C590.878 106.208 591.123 104.578 591.15 102.609C591.15 102.012 591.177 101.333 591.231 100.572C592.453 100.043 593.947 99.7303 595.712 99.6352C598.074 99.4994 599.954 98.8408 601.353 97.6593C602.751 96.4778 603.857 95.0044 604.672 93.2389C604.658 91.6093 604.658 89.9797 604.672 88.3501C604.672 88.2142 604.672 88.0785 604.672 87.9426C603.98 86.6118 603.131 85.4235 602.126 84.3778C602.059 84.3099 601.957 84.276 601.821 84.276C600.721 82.6599 598.956 81.7501 596.526 81.5463C595.562 81.4649 594.646 81.5463 593.777 81.7908C593.166 81.9537 592.453 82.1031 591.639 82.2389C591.639 82.3747 591.639 82.5106 591.639 82.6464C590.349 83.1217 589.351 83.9025 588.645 84.9889C587.532 86.7001 586.867 88.9068 586.649 91.6093C586.541 92.913 586.303 94.1352 585.937 95.276C585.801 95.276 585.665 95.276 585.529 95.276C582.407 95.276 579.284 95.276 576.162 95.276C576.162 95.1402 576.162 95.0044 576.162 94.8686C576.012 89.5859 574.655 85.5118 572.089 82.6464C571.953 82.6464 571.831 82.6192 571.722 82.5649C569.93 81.8044 567.744 81.4241 565.165 81.4241C565.165 81.5599 565.144 81.6346 565.104 81.6482C563.488 82.1507 562.015 82.755 560.685 83.4612C560.685 83.597 560.651 83.6988 560.583 83.7667C559.334 85.0976 558.417 86.7612 557.833 88.7575C557.833 89.8439 557.833 90.9303 557.833 92.0167C557.833 92.1525 557.833 92.2883 557.833 92.4241C559.463 97.8562 563.943 100.504 571.274 100.369V100.572C571.763 102.134 572.028 104.035 572.068 106.276C572.068 106.561 572.055 106.969 572.028 107.498C571.892 109.725 571.933 111.64 572.15 113.243C572.367 114.981 572.564 116.726 572.74 118.478C573.161 123.068 573.487 127.828 573.718 132.757C569.781 132.757 565.844 132.757 561.906 132.757C561.771 132.757 561.635 132.757 561.499 132.757C561.499 132.622 561.499 132.486 561.499 132.35C561.839 125.085 560.888 119.109 558.648 114.424C558.648 114.288 558.614 114.173 558.546 114.078C555.682 109.651 552.593 105.42 549.28 101.387C549.145 101.387 549.056 101.353 549.016 101.285C546.029 97.0482 543.538 92.3291 541.542 87.1278C541.393 85.5118 541.209 84.0044 540.992 82.6056C540.354 78.3414 540.13 73.7377 540.32 68.7945C540.646 67.8982 540.904 66.9476 541.094 65.9426C541.121 65.8068 541.135 65.671 541.135 65.5352C542.737 59.8044 545.221 54.9494 548.588 50.9704C548.642 50.9025 548.737 50.8686 548.873 50.8686C548.873 50.7328 548.873 50.597 548.873 50.4612C548.873 50.3254 548.873 50.1896 548.873 50.0538C552.81 45.9797 557.324 42.5099 562.416 39.6445C564.357 38.5445 566.475 37.6142 568.769 36.8537C571.783 35.8624 575.198 35.2377 579.013 34.9797C583.398 34.6809 587.097 34.9797 590.111 35.876C590.858 36.0933 591.605 36.3105 592.351 36.5278ZM576.569 101.387C576.582 100.98 576.582 100.572 576.569 100.165C579.556 100.165 582.543 100.165 585.529 100.165C585.665 100.165 585.801 100.165 585.937 100.165C585.774 102.99 585.584 105.835 585.366 108.7C585.149 111.511 585 114.37 584.918 117.276C584.783 122.301 584.457 127.054 583.941 131.535C583.914 131.807 583.839 131.977 583.717 132.044C582.536 132.724 580.968 132.961 579.013 132.757C578.538 131.603 578.334 130.109 578.402 128.276C578.402 128.14 578.395 127.998 578.381 127.848C577.893 120.216 577.424 112.618 576.976 105.054C576.976 104.918 576.983 104.782 576.997 104.646C577.187 103.356 577.044 102.406 576.569 101.795C576.569 101.659 576.569 101.523 576.569 101.387ZM590.417 149.257V149.461C590.62 151.838 590.111 153.508 588.889 154.472C588.822 154.527 588.788 154.622 588.788 154.757C588.258 154.893 587.729 155.063 587.199 155.267C587.036 155.335 586.88 155.375 586.731 155.389C585.102 155.511 583.486 155.647 581.884 155.796C577.2 156.258 573.935 155.369 572.089 153.128C572.089 152.992 572.068 152.863 572.028 152.741C571.634 151.804 571.519 150.575 571.681 149.054C577.927 149.054 584.172 149.122 590.417 149.257ZM569.238 143.757C569.102 143.757 568.966 143.764 568.83 143.778C567.676 143.832 567.133 143.282 567.201 142.128C567.201 141.992 567.201 141.856 567.201 141.72C567.215 140.498 567.215 139.276 567.201 138.054C575.211 138.054 583.221 138.054 591.231 138.054C592.725 138.054 594.218 138.054 595.712 138.054C595.712 138.19 595.712 138.325 595.712 138.461C595.807 140.471 595.535 142.101 594.897 143.35C594.897 143.486 594.897 143.622 594.897 143.757C594.761 143.757 594.626 143.757 594.49 143.757C594.096 143.757 593.689 143.757 593.268 143.757C593.132 143.757 592.996 143.757 592.861 143.757C584.986 143.757 577.112 143.757 569.238 143.757ZM583.9 1.97968C583.887 1.45005 583.73 1.0698 583.432 0.838936C581.789 -0.356126 580.316 -0.247477 579.013 1.16487C579.013 1.30067 579.013 1.43647 579.013 1.57228C579.013 1.70808 579.013 1.84388 579.013 1.97968C578.877 1.97968 578.741 1.97968 578.605 1.97968C578.605 7.41178 578.673 12.8439 578.809 18.276H579.013C579.176 20.1636 580.499 20.7204 582.984 19.9463C583.473 19.797 583.778 19.376 583.9 18.6834C584.036 18.5476 584.104 18.4118 584.104 18.276C584.24 14.2019 584.382 10.1278 584.531 6.05376C584.586 4.35623 584.375 2.9982 583.9 1.97968ZM224.506 98.0463C224.615 98.1007 224.737 98.1278 224.873 98.1278C230.167 98.1278 235.462 98.1278 240.757 98.1278C243.472 98.1278 246.188 98.1278 248.903 98.1278H252.568C252.84 98.1278 253.111 98.1278 253.383 98.1278H253.79C253.655 98.2908 253.512 98.4605 253.363 98.6371C251.177 101.177 248.876 103.723 246.459 106.276C246.581 109.25 247.912 110.262 250.451 109.311C251.17 109.04 251.808 108.646 252.365 108.13C255.582 105.128 258.556 101.91 261.284 98.4741C261.38 98.3519 261.468 98.2365 261.549 98.1278C262.011 97.5303 262.472 96.926 262.934 96.3149C263.531 95.5001 263.47 94.6105 262.751 93.6464C262.615 93.6464 262.513 93.6124 262.445 93.5445C262.214 93.3136 261.984 93.0828 261.753 92.8519C261.604 92.7025 261.461 92.5599 261.325 92.4241C258.922 90.0068 256.546 87.5624 254.198 85.0908C253.695 84.2352 253.105 83.4679 252.426 82.7889C252.019 82.3815 251.516 82.1439 250.919 82.076C248.665 81.8179 247.314 82.5513 246.866 84.276C247.423 86.1772 248.38 87.6574 249.738 88.7167C251.123 89.7895 252.338 91.0254 253.383 92.4241L253.587 92.6278C252.609 92.655 251.638 92.6822 250.675 92.7093C246.724 92.818 242.739 92.9334 238.721 93.0556C236.752 93.1099 235.123 92.8994 233.833 92.4241C232.625 92.4241 231.41 92.363 230.188 92.2408C226.699 91.8741 224.248 92.4784 222.836 94.0538C222.632 96.1451 223.189 97.476 224.506 98.0463ZM527.694 19.0908C527.694 19.9056 527.694 20.7204 527.694 21.5352C527.694 21.8068 527.762 22.0105 527.898 22.1464C531.835 26.2204 535.84 30.2266 539.913 34.1649C540.048 34.1649 540.184 34.1649 540.32 34.1649C542.003 34.2192 543.09 33.676 543.578 32.5352C544.23 31.2723 544.081 30.2062 543.13 29.3371C539.505 26.0235 535.969 22.6284 532.52 19.1519C530.932 17.5494 529.323 17.5291 527.694 19.0908ZM620.577 34.2667C620.984 34.1988 621.296 34.0698 621.514 33.8797C625.641 29.9957 629.666 26.0167 633.59 21.9426C633.726 21.9426 633.793 21.9291 633.793 21.9019C634.16 20.0686 633.821 18.8599 632.775 18.276C631.961 17.6105 631.112 17.5494 630.23 18.0926C630.026 18.2149 629.856 18.3439 629.72 18.4797C625.648 22.418 621.643 26.4241 617.705 30.4982C617.705 30.634 617.705 30.7698 617.705 30.9056C617.692 32.5488 618.371 33.4994 619.742 33.7575C619.728 34.2056 620.007 34.3754 620.577 34.2667Z" fill="white" fill-opacity="0.46"/>
<path d="M326.427 220.091C326.342 219.371 325.996 218.812 325.39 218.415C324.784 218.017 324.04 217.818 323.16 217.818C322.516 217.818 321.952 217.922 321.469 218.131C320.991 218.339 320.617 218.625 320.347 218.99C320.082 219.355 319.95 219.769 319.95 220.233C319.95 220.621 320.042 220.955 320.227 221.234C320.416 221.509 320.657 221.739 320.951 221.923C321.245 222.103 321.552 222.252 321.874 222.371C322.196 222.484 322.492 222.577 322.762 222.648L324.239 223.045C324.618 223.145 325.04 223.282 325.504 223.457C325.972 223.633 326.42 223.872 326.846 224.175C327.277 224.473 327.632 224.857 327.911 225.325C328.191 225.794 328.33 226.369 328.33 227.051C328.33 227.837 328.124 228.547 327.712 229.182C327.305 229.816 326.709 230.321 325.923 230.695C325.141 231.069 324.192 231.256 323.075 231.256C322.033 231.256 321.131 231.088 320.369 230.751C319.611 230.415 319.014 229.946 318.579 229.345C318.148 228.744 317.904 228.045 317.847 227.25H319.665C319.713 227.799 319.897 228.254 320.219 228.614C320.546 228.969 320.958 229.234 321.455 229.409C321.957 229.58 322.497 229.665 323.075 229.665C323.747 229.665 324.351 229.556 324.886 229.338C325.421 229.116 325.844 228.808 326.157 228.415C326.469 228.017 326.626 227.553 326.626 227.023C326.626 226.54 326.491 226.147 326.221 225.844C325.951 225.541 325.596 225.295 325.156 225.105C324.715 224.916 324.239 224.75 323.728 224.608L321.938 224.097C320.802 223.77 319.902 223.304 319.239 222.697C318.576 222.091 318.245 221.298 318.245 220.318C318.245 219.504 318.465 218.794 318.906 218.188C319.351 217.577 319.947 217.103 320.695 216.767C321.448 216.426 322.289 216.256 323.217 216.256C324.154 216.256 324.987 216.424 325.717 216.76C326.446 217.091 327.023 217.546 327.45 218.124C327.88 218.701 328.108 219.357 328.131 220.091H326.427ZM330.999 231V220.091H332.675V231H330.999ZM331.851 218.273C331.525 218.273 331.243 218.161 331.006 217.939C330.774 217.716 330.658 217.449 330.658 217.136C330.658 216.824 330.774 216.556 331.006 216.334C331.243 216.111 331.525 216 331.851 216C332.178 216 332.457 216.111 332.689 216.334C332.926 216.556 333.044 216.824 333.044 217.136C333.044 217.449 332.926 217.716 332.689 217.939C332.457 218.161 332.178 218.273 331.851 218.273ZM335.745 231V220.091H337.364V221.795H337.506C337.734 221.213 338.101 220.761 338.607 220.439C339.114 220.112 339.722 219.949 340.433 219.949C341.152 219.949 341.751 220.112 342.229 220.439C342.712 220.761 343.089 221.213 343.359 221.795H343.472C343.752 221.232 344.171 220.785 344.729 220.453C345.288 220.117 345.958 219.949 346.739 219.949C347.715 219.949 348.513 220.254 349.133 220.865C349.753 221.471 350.063 222.416 350.063 223.699V231H348.387V223.699C348.387 222.894 348.167 222.319 347.727 221.973C347.286 221.627 346.768 221.455 346.171 221.455C345.404 221.455 344.81 221.687 344.388 222.151C343.967 222.61 343.756 223.192 343.756 223.898V231H342.052V223.528C342.052 222.908 341.851 222.409 341.448 222.03C341.046 221.646 340.527 221.455 339.893 221.455C339.457 221.455 339.05 221.571 338.671 221.803C338.297 222.035 337.994 222.357 337.762 222.768C337.535 223.176 337.421 223.647 337.421 224.182V231H335.745ZM353.128 235.091V220.091H354.747V221.824H354.946C355.069 221.634 355.24 221.393 355.457 221.099C355.68 220.801 355.997 220.536 356.409 220.304C356.826 220.067 357.389 219.949 358.099 219.949C359.018 219.949 359.828 220.179 360.528 220.638C361.229 221.097 361.776 221.748 362.169 222.591C362.562 223.434 362.759 224.428 362.759 225.574C362.759 226.729 362.562 227.731 362.169 228.578C361.776 229.421 361.232 230.074 360.536 230.538C359.839 230.998 359.037 231.227 358.128 231.227C357.427 231.227 356.866 231.111 356.445 230.879C356.023 230.643 355.699 230.375 355.472 230.077C355.244 229.774 355.069 229.523 354.946 229.324H354.804V235.091H353.128ZM354.776 225.545C354.776 226.369 354.896 227.096 355.138 227.726C355.379 228.351 355.732 228.841 356.196 229.196C356.66 229.546 357.228 229.722 357.901 229.722C358.601 229.722 359.186 229.537 359.655 229.168C360.128 228.794 360.483 228.292 360.72 227.662C360.962 227.027 361.082 226.322 361.082 225.545C361.082 224.778 360.964 224.087 360.727 223.472C360.495 222.851 360.143 222.361 359.669 222.001C359.2 221.637 358.611 221.455 357.901 221.455C357.219 221.455 356.646 221.627 356.182 221.973C355.718 222.314 355.367 222.792 355.131 223.408C354.894 224.018 354.776 224.731 354.776 225.545ZM366.991 216.455V231H365.315V216.455H366.991ZM370.061 231V220.091H371.738V231H370.061ZM370.914 218.273C370.587 218.273 370.305 218.161 370.069 217.939C369.837 217.716 369.721 217.449 369.721 217.136C369.721 216.824 369.837 216.556 370.069 216.334C370.305 216.111 370.587 216 370.914 216C371.24 216 371.52 216.111 371.752 216.334C371.989 216.556 372.107 216.824 372.107 217.136C372.107 217.449 371.989 217.716 371.752 217.939C371.52 218.161 371.24 218.273 370.914 218.273ZM379.665 220.091V221.511H373.785V220.091H379.665ZM375.546 231V218.585C375.546 217.96 375.693 217.439 375.987 217.023C376.28 216.606 376.661 216.294 377.13 216.085C377.599 215.877 378.094 215.773 378.614 215.773C379.026 215.773 379.362 215.806 379.623 215.872C379.883 215.938 380.077 216 380.205 216.057L379.722 217.506C379.637 217.477 379.519 217.442 379.367 217.399C379.22 217.357 379.026 217.335 378.785 217.335C378.231 217.335 377.831 217.475 377.585 217.754C377.343 218.034 377.222 218.443 377.222 218.983V231H375.546ZM382.015 231V220.091H383.691V231H382.015ZM382.867 218.273C382.54 218.273 382.258 218.161 382.022 217.939C381.79 217.716 381.674 217.449 381.674 217.136C381.674 216.824 381.79 216.556 382.022 216.334C382.258 216.111 382.54 216 382.867 216C383.194 216 383.473 216.111 383.705 216.334C383.942 216.556 384.06 216.824 384.06 217.136C384.06 217.449 383.942 217.716 383.705 217.939C383.473 218.161 383.194 218.273 382.867 218.273ZM391.335 231.227C390.283 231.227 389.377 230.995 388.614 230.531C387.857 230.062 387.272 229.409 386.86 228.571C386.453 227.728 386.249 226.748 386.249 225.631C386.249 224.513 386.453 223.528 386.86 222.676C387.272 221.819 387.845 221.152 388.579 220.673C389.317 220.19 390.179 219.949 391.164 219.949C391.732 219.949 392.293 220.044 392.847 220.233C393.401 220.422 393.906 220.73 394.36 221.156C394.815 221.578 395.177 222.136 395.447 222.832C395.717 223.528 395.852 224.385 395.852 225.403V226.114H387.442V224.665H394.147C394.147 224.049 394.024 223.5 393.778 223.017C393.536 222.534 393.191 222.153 392.741 221.874C392.296 221.594 391.77 221.455 391.164 221.455C390.496 221.455 389.919 221.62 389.431 221.952C388.948 222.278 388.576 222.705 388.316 223.23C388.056 223.756 387.925 224.319 387.925 224.92V225.886C387.925 226.71 388.067 227.409 388.352 227.982C388.64 228.55 389.04 228.983 389.552 229.281C390.063 229.575 390.657 229.722 391.335 229.722C391.775 229.722 392.173 229.66 392.528 229.537C392.888 229.409 393.198 229.22 393.458 228.969C393.719 228.713 393.92 228.396 394.062 228.017L395.681 228.472C395.511 229.021 395.224 229.504 394.822 229.92C394.419 230.332 393.922 230.654 393.33 230.886C392.738 231.114 392.073 231.227 391.335 231.227ZM402.521 231.227C401.612 231.227 400.809 230.998 400.113 230.538C399.417 230.074 398.872 229.421 398.479 228.578C398.086 227.731 397.89 226.729 397.89 225.574C397.89 224.428 398.086 223.434 398.479 222.591C398.872 221.748 399.419 221.097 400.12 220.638C400.821 220.179 401.63 219.949 402.549 219.949C403.259 219.949 403.82 220.067 404.232 220.304C404.649 220.536 404.966 220.801 405.184 221.099C405.406 221.393 405.579 221.634 405.702 221.824H405.844V216.455H407.521V231H405.901V229.324H405.702C405.579 229.523 405.404 229.774 405.177 230.077C404.95 230.375 404.625 230.643 404.204 230.879C403.782 231.111 403.221 231.227 402.521 231.227ZM402.748 229.722C403.42 229.722 403.988 229.546 404.452 229.196C404.916 228.841 405.269 228.351 405.511 227.726C405.752 227.096 405.873 226.369 405.873 225.545C405.873 224.731 405.754 224.018 405.518 223.408C405.281 222.792 404.931 222.314 404.467 221.973C404.003 221.627 403.43 221.455 402.748 221.455C402.038 221.455 401.446 221.637 400.972 222.001C400.504 222.361 400.151 222.851 399.914 223.472C399.682 224.087 399.566 224.778 399.566 225.545C399.566 226.322 399.684 227.027 399.921 227.662C400.163 228.292 400.518 228.794 400.987 229.168C401.46 229.537 402.047 229.722 402.748 229.722Z" fill="white" fill-opacity="0.85"/>
<path d="M93.8976 187H92.1362C92.032 186.493 91.8497 186.048 91.5893 185.665C91.3336 185.281 91.0211 184.959 90.6518 184.699C90.2872 184.434 89.8824 184.235 89.4373 184.102C88.9922 183.97 88.5282 183.903 88.0453 183.903C87.1646 183.903 86.3668 184.126 85.6518 184.571C84.9416 185.016 84.3758 185.672 83.9544 186.538C83.5377 187.405 83.3294 188.468 83.3294 189.727C83.3294 190.987 83.5377 192.05 83.9544 192.916C84.3758 193.783 84.9416 194.438 85.6518 194.884C86.3668 195.329 87.1646 195.551 88.0453 195.551C88.5282 195.551 88.9922 195.485 89.4373 195.352C89.8824 195.22 90.2872 195.023 90.6518 194.763C91.0211 194.498 91.3336 194.173 91.5893 193.79C91.8497 193.402 92.032 192.956 92.1362 192.455H93.8976C93.765 193.198 93.5235 193.863 93.1731 194.45C92.8227 195.037 92.3871 195.537 91.8663 195.949C91.3455 196.356 90.7607 196.666 90.112 196.879C89.4681 197.092 88.7792 197.199 88.0453 197.199C86.8047 197.199 85.7015 196.896 84.7356 196.29C83.7697 195.684 83.0098 194.822 82.4558 193.705C81.9018 192.587 81.6248 191.261 81.6248 189.727C81.6248 188.193 81.9018 186.867 82.4558 185.75C83.0098 184.633 83.7697 183.771 84.7356 183.165C85.7015 182.559 86.8047 182.256 88.0453 182.256C88.7792 182.256 89.4681 182.362 90.112 182.575C90.7607 182.788 91.3455 183.101 91.8663 183.513C92.3871 183.92 92.8227 184.417 93.1731 185.004C93.5235 185.587 93.765 186.252 93.8976 187ZM100.948 197.227C99.9635 197.227 99.0994 196.993 98.356 196.524C97.6174 196.055 97.0397 195.4 96.623 194.557C96.2111 193.714 96.0051 192.729 96.0051 191.602C96.0051 190.466 96.2111 189.474 96.623 188.626C97.0397 187.779 97.6174 187.121 98.356 186.652C99.0994 186.183 99.9635 185.949 100.948 185.949C101.933 185.949 102.795 186.183 103.534 186.652C104.277 187.121 104.855 187.779 105.267 188.626C105.683 189.474 105.892 190.466 105.892 191.602C105.892 192.729 105.683 193.714 105.267 194.557C104.855 195.4 104.277 196.055 103.534 196.524C102.795 196.993 101.933 197.227 100.948 197.227ZM100.948 195.722C101.696 195.722 102.312 195.53 102.795 195.146C103.278 194.763 103.635 194.259 103.867 193.634C104.099 193.009 104.215 192.331 104.215 191.602C104.215 190.873 104.099 190.194 103.867 189.564C103.635 188.934 103.278 188.425 102.795 188.037C102.312 187.649 101.696 187.455 100.948 187.455C100.2 187.455 99.5847 187.649 99.1017 188.037C98.6188 188.425 98.2613 188.934 98.0293 189.564C97.7973 190.194 97.6813 190.873 97.6813 191.602C97.6813 192.331 97.7973 193.009 98.0293 193.634C98.2613 194.259 98.6188 194.763 99.1017 195.146C99.5847 195.53 100.2 195.722 100.948 195.722ZM108.45 197V186.091H110.069V187.795H110.211C110.439 187.213 110.806 186.761 111.312 186.439C111.819 186.112 112.427 185.949 113.138 185.949C113.857 185.949 114.456 186.112 114.934 186.439C115.417 186.761 115.794 187.213 116.064 187.795H116.177C116.457 187.232 116.876 186.785 117.434 186.453C117.993 186.117 118.663 185.949 119.444 185.949C120.42 185.949 121.218 186.254 121.838 186.865C122.458 187.471 122.768 188.416 122.768 189.699V197H121.092V189.699C121.092 188.894 120.872 188.319 120.432 187.973C119.991 187.627 119.473 187.455 118.876 187.455C118.109 187.455 117.515 187.687 117.094 188.151C116.672 188.61 116.461 189.192 116.461 189.898V197H114.757V189.528C114.757 188.908 114.556 188.409 114.153 188.03C113.751 187.646 113.232 187.455 112.598 187.455C112.162 187.455 111.755 187.571 111.376 187.803C111.002 188.035 110.699 188.357 110.467 188.768C110.24 189.176 110.126 189.647 110.126 190.182V197H108.45ZM125.833 201.091V186.091H127.452V187.824H127.651C127.774 187.634 127.945 187.393 128.162 187.099C128.385 186.801 128.702 186.536 129.114 186.304C129.531 186.067 130.094 185.949 130.805 185.949C131.723 185.949 132.533 186.179 133.233 186.638C133.934 187.097 134.481 187.748 134.874 188.591C135.267 189.434 135.464 190.428 135.464 191.574C135.464 192.729 135.267 193.731 134.874 194.578C134.481 195.421 133.937 196.074 133.241 196.538C132.545 196.998 131.742 197.227 130.833 197.227C130.132 197.227 129.571 197.111 129.15 196.879C128.728 196.643 128.404 196.375 128.177 196.077C127.949 195.774 127.774 195.523 127.651 195.324H127.509V201.091H125.833ZM127.481 191.545C127.481 192.369 127.601 193.096 127.843 193.726C128.084 194.351 128.437 194.841 128.901 195.196C129.365 195.546 129.933 195.722 130.606 195.722C131.306 195.722 131.891 195.537 132.36 195.168C132.833 194.794 133.189 194.292 133.425 193.662C133.667 193.027 133.787 192.322 133.787 191.545C133.787 190.778 133.669 190.087 133.432 189.472C133.2 188.851 132.848 188.361 132.374 188.001C131.905 187.637 131.316 187.455 130.606 187.455C129.924 187.455 129.351 187.627 128.887 187.973C128.423 188.314 128.073 188.792 127.836 189.408C127.599 190.018 127.481 190.731 127.481 191.545ZM139.697 182.455V197H138.02V182.455H139.697ZM147.34 197.227C146.289 197.227 145.383 196.995 144.62 196.531C143.863 196.062 143.278 195.409 142.866 194.571C142.459 193.728 142.255 192.748 142.255 191.631C142.255 190.513 142.459 189.528 142.866 188.676C143.278 187.819 143.851 187.152 144.585 186.673C145.323 186.19 146.185 185.949 147.17 185.949C147.738 185.949 148.299 186.044 148.853 186.233C149.407 186.422 149.911 186.73 150.366 187.156C150.82 187.578 151.183 188.136 151.453 188.832C151.722 189.528 151.857 190.385 151.857 191.403V192.114H143.448V190.665H150.153C150.153 190.049 150.03 189.5 149.784 189.017C149.542 188.534 149.196 188.153 148.747 187.874C148.302 187.594 147.776 187.455 147.17 187.455C146.502 187.455 145.925 187.62 145.437 187.952C144.954 188.278 144.582 188.705 144.322 189.23C144.061 189.756 143.931 190.319 143.931 190.92V191.886C143.931 192.71 144.073 193.409 144.357 193.982C144.646 194.55 145.046 194.983 145.558 195.281C146.069 195.575 146.663 195.722 147.34 195.722C147.781 195.722 148.178 195.66 148.534 195.537C148.893 195.409 149.204 195.22 149.464 194.969C149.724 194.713 149.926 194.396 150.068 194.017L151.687 194.472C151.517 195.021 151.23 195.504 150.828 195.92C150.425 196.332 149.928 196.654 149.336 196.886C148.744 197.114 148.079 197.227 147.34 197.227ZM155.364 186.091L157.978 190.551L160.591 186.091H162.523L159.001 191.545L162.523 197H160.591L157.978 192.767L155.364 197H153.432L156.898 191.545L153.432 186.091H155.364ZM175.284 186.091V187.511H169.631V186.091H175.284ZM171.279 183.477H172.955V193.875C172.955 194.348 173.023 194.704 173.161 194.94C173.303 195.172 173.483 195.329 173.7 195.409C173.923 195.485 174.157 195.523 174.404 195.523C174.588 195.523 174.74 195.513 174.858 195.494C174.977 195.471 175.071 195.452 175.142 195.438L175.483 196.943C175.369 196.986 175.211 197.028 175.007 197.071C174.804 197.118 174.546 197.142 174.233 197.142C173.76 197.142 173.296 197.04 172.841 196.837C172.391 196.633 172.017 196.323 171.719 195.906C171.425 195.49 171.279 194.964 171.279 194.33V183.477ZM182.262 197.227C181.211 197.227 180.304 196.995 179.542 196.531C178.785 196.062 178.2 195.409 177.788 194.571C177.381 193.728 177.177 192.748 177.177 191.631C177.177 190.513 177.381 189.528 177.788 188.676C178.2 187.819 178.773 187.152 179.507 186.673C180.245 186.19 181.107 185.949 182.092 185.949C182.66 185.949 183.221 186.044 183.775 186.233C184.329 186.422 184.833 186.73 185.288 187.156C185.742 187.578 186.105 188.136 186.374 188.832C186.644 189.528 186.779 190.385 186.779 191.403V192.114H178.37V190.665H185.075C185.075 190.049 184.952 189.5 184.705 189.017C184.464 188.534 184.118 188.153 183.669 187.874C183.223 187.594 182.698 187.455 182.092 187.455C181.424 187.455 180.847 187.62 180.359 187.952C179.876 188.278 179.504 188.705 179.244 189.23C178.983 189.756 178.853 190.319 178.853 190.92V191.886C178.853 192.71 178.995 193.409 179.279 193.982C179.568 194.55 179.968 194.983 180.48 195.281C180.991 195.575 181.585 195.722 182.262 195.722C182.703 195.722 183.1 195.66 183.455 195.537C183.815 195.409 184.125 195.22 184.386 194.969C184.646 194.713 184.847 194.396 184.99 194.017L186.609 194.472C186.438 195.021 186.152 195.504 185.749 195.92C185.347 196.332 184.85 196.654 184.258 196.886C183.666 197.114 183.001 197.227 182.262 197.227ZM190.286 186.091L192.9 190.551L195.513 186.091H197.445L193.922 191.545L197.445 197H195.513L192.9 192.767L190.286 197H188.354L191.82 191.545L188.354 186.091H190.286ZM204.581 186.091V187.511H198.928V186.091H204.581ZM200.575 183.477H202.252V193.875C202.252 194.348 202.32 194.704 202.458 194.94C202.6 195.172 202.78 195.329 202.997 195.409C203.22 195.485 203.454 195.523 203.7 195.523C203.885 195.523 204.037 195.513 204.155 195.494C204.273 195.471 204.368 195.452 204.439 195.438L204.78 196.943C204.666 196.986 204.508 197.028 204.304 197.071C204.101 197.118 203.843 197.142 203.53 197.142C203.057 197.142 202.593 197.04 202.138 196.837C201.688 196.633 201.314 196.323 201.016 195.906C200.722 195.49 200.575 194.964 200.575 194.33V183.477Z" fill="white" fill-opacity="0.85"/>
<path d="M545.116 197H543.269L548.61 182.455H550.428L555.769 197H553.923L549.576 184.756H549.462L545.116 197ZM545.798 191.318H553.241V192.881H545.798V191.318ZM559.484 190.438V197H557.808V186.091H559.427V187.795H559.569C559.825 187.241 560.213 186.796 560.734 186.46C561.254 186.119 561.927 185.949 562.751 185.949C563.489 185.949 564.136 186.1 564.69 186.403C565.244 186.702 565.674 187.156 565.982 187.767C566.29 188.373 566.444 189.14 566.444 190.068V197H564.768V190.182C564.768 189.325 564.545 188.657 564.1 188.179C563.655 187.696 563.044 187.455 562.268 187.455C561.733 187.455 561.254 187.571 560.833 187.803C560.416 188.035 560.087 188.373 559.846 188.818C559.604 189.263 559.484 189.803 559.484 190.438ZM572.717 197.256C572.026 197.256 571.398 197.125 570.835 196.865C570.271 196.6 569.824 196.219 569.493 195.722C569.161 195.22 568.995 194.614 568.995 193.903C568.995 193.278 569.118 192.772 569.365 192.384C569.611 191.991 569.94 191.683 570.352 191.46C570.764 191.238 571.218 191.072 571.716 190.963C572.217 190.849 572.722 190.759 573.228 190.693C573.891 190.608 574.429 190.544 574.841 190.501C575.257 190.454 575.56 190.376 575.75 190.267C575.944 190.158 576.041 189.969 576.041 189.699V189.642C576.041 188.941 575.849 188.397 575.466 188.009C575.087 187.62 574.511 187.426 573.74 187.426C572.94 187.426 572.312 187.601 571.858 187.952C571.403 188.302 571.083 188.676 570.899 189.074L569.308 188.506C569.592 187.843 569.971 187.327 570.444 186.957C570.922 186.583 571.443 186.323 572.007 186.176C572.575 186.025 573.134 185.949 573.683 185.949C574.033 185.949 574.436 185.991 574.89 186.077C575.35 186.157 575.792 186.325 576.218 186.581C576.649 186.837 577.007 187.223 577.291 187.739C577.575 188.255 577.717 188.946 577.717 189.812V197H576.041V195.523H575.956C575.842 195.759 575.653 196.013 575.387 196.283C575.122 196.553 574.77 196.782 574.329 196.972C573.889 197.161 573.351 197.256 572.717 197.256ZM572.973 195.75C573.636 195.75 574.194 195.62 574.649 195.359C575.108 195.099 575.454 194.763 575.686 194.351C575.922 193.939 576.041 193.506 576.041 193.051V191.517C575.97 191.602 575.814 191.68 575.572 191.751C575.335 191.818 575.061 191.877 574.748 191.929C574.44 191.976 574.14 192.019 573.846 192.057C573.557 192.09 573.323 192.118 573.143 192.142C572.708 192.199 572.3 192.291 571.922 192.419C571.547 192.542 571.244 192.729 571.012 192.98C570.785 193.226 570.672 193.562 570.672 193.989C570.672 194.571 570.887 195.011 571.318 195.31C571.753 195.603 572.305 195.75 572.973 195.75ZM582.452 182.455V197H580.776V182.455H582.452ZM589.954 197.227C588.969 197.227 588.105 196.993 587.362 196.524C586.623 196.055 586.046 195.4 585.629 194.557C585.217 193.714 585.011 192.729 585.011 191.602C585.011 190.466 585.217 189.474 585.629 188.626C586.046 187.779 586.623 187.121 587.362 186.652C588.105 186.183 588.969 185.949 589.954 185.949C590.939 185.949 591.801 186.183 592.539 186.652C593.283 187.121 593.86 187.779 594.272 188.626C594.689 189.474 594.897 190.466 594.897 191.602C594.897 192.729 594.689 193.714 594.272 194.557C593.86 195.4 593.283 196.055 592.539 196.524C591.801 196.993 590.939 197.227 589.954 197.227ZM589.954 195.722C590.702 195.722 591.318 195.53 591.801 195.146C592.284 194.763 592.641 194.259 592.873 193.634C593.105 193.009 593.221 192.331 593.221 191.602C593.221 190.873 593.105 190.194 592.873 189.564C592.641 188.934 592.284 188.425 591.801 188.037C591.318 187.649 590.702 187.455 589.954 187.455C589.206 187.455 588.591 187.649 588.108 188.037C587.625 188.425 587.267 188.934 587.035 189.564C586.803 190.194 586.687 190.873 586.687 191.602C586.687 192.331 586.803 193.009 587.035 193.634C587.267 194.259 587.625 194.763 588.108 195.146C588.591 195.53 589.206 195.722 589.954 195.722ZM601.859 201.318C601.05 201.318 600.354 201.214 599.771 201.006C599.189 200.802 598.704 200.532 598.315 200.196C597.932 199.865 597.626 199.509 597.399 199.131L598.734 198.193C598.886 198.392 599.078 198.619 599.31 198.875C599.542 199.135 599.859 199.36 600.261 199.55C600.669 199.744 601.201 199.841 601.859 199.841C602.74 199.841 603.467 199.628 604.04 199.202C604.613 198.776 604.899 198.108 604.899 197.199V194.983H604.757C604.634 195.182 604.459 195.428 604.232 195.722C604.009 196.01 603.687 196.268 603.266 196.496C602.849 196.718 602.286 196.83 601.575 196.83C600.695 196.83 599.904 196.621 599.203 196.205C598.507 195.788 597.955 195.182 597.548 194.386C597.146 193.591 596.945 192.625 596.945 191.489C596.945 190.371 597.141 189.398 597.534 188.57C597.927 187.736 598.474 187.092 599.175 186.638C599.875 186.179 600.685 185.949 601.604 185.949C602.314 185.949 602.877 186.067 603.294 186.304C603.715 186.536 604.037 186.801 604.26 187.099C604.487 187.393 604.662 187.634 604.786 187.824H604.956V186.091H606.575V197.312C606.575 198.25 606.362 199.012 605.936 199.599C605.515 200.191 604.946 200.625 604.232 200.899C603.521 201.179 602.731 201.318 601.859 201.318ZM601.803 195.324C602.475 195.324 603.043 195.17 603.507 194.862C603.971 194.554 604.324 194.112 604.565 193.534C604.807 192.956 604.928 192.265 604.928 191.46C604.928 190.674 604.809 189.981 604.572 189.379C604.336 188.778 603.985 188.307 603.521 187.966C603.057 187.625 602.484 187.455 601.803 187.455C601.092 187.455 600.5 187.634 600.027 187.994C599.558 188.354 599.205 188.837 598.969 189.443C598.737 190.049 598.621 190.722 598.621 191.46C598.621 192.218 598.739 192.888 598.976 193.47C599.217 194.048 599.572 194.502 600.041 194.834C600.515 195.161 601.102 195.324 601.803 195.324ZM610.723 201.091C610.439 201.091 610.186 201.067 609.963 201.02C609.741 200.977 609.587 200.935 609.501 200.892L609.928 199.415C610.335 199.519 610.695 199.557 611.007 199.528C611.32 199.5 611.597 199.36 611.838 199.109C612.084 198.863 612.309 198.463 612.513 197.909L612.825 197.057L608.791 186.091H610.609L613.621 194.784H613.734L616.746 186.091H618.564L613.933 198.591C613.725 199.154 613.467 199.621 613.159 199.99C612.851 200.364 612.494 200.641 612.087 200.821C611.684 201.001 611.23 201.091 610.723 201.091Z" fill="white" fill-opacity="0.85"/>
</svg>
