<svg width="43" height="43" viewBox="0 0 43 43" fill="none" xmlns="http://www.w3.org/2000/svg">
<path d="M16.7608 10.4455L16.9758 10.553C17.8448 11.0009 18.5525 11.7086 19.0004 12.5775L19.1079 12.7925C19.5379 13.6436 20.7562 13.6436 21.1952 12.7925L21.3027 12.5775C21.7506 11.7086 22.4583 11.0009 23.3273 10.553L23.5423 10.4455C24.3933 10.0155 24.3933 8.79713 23.5423 8.35817L23.3273 8.25067C22.4583 7.80275 21.7506 7.09504 21.3027 6.22608L21.1952 6.01108C20.7652 5.16004 19.5468 5.16004 19.1079 6.01108L19.0004 6.22608C18.5525 7.09504 17.8448 7.80275 16.9758 8.25067L16.7608 8.35817C15.9098 8.78817 15.9098 10.0065 16.7608 10.4455Z" fill="url(#paint0_linear_9_680)"/>
<path d="M18.4539 18.8394C19.3318 18.3915 19.3318 17.1463 18.4539 16.6984L17.146 16.0265C15.9814 15.4263 15.0318 14.4767 14.4316 13.3121L13.7598 12.0042C13.3118 11.1263 12.0666 11.1263 11.6187 12.0042L10.9468 13.3121C10.3466 14.4767 9.39705 15.4263 8.23247 16.0265L6.92455 16.6984C6.04663 17.1463 6.04663 18.3915 6.92455 18.8394L8.23247 19.5113C9.39705 20.1115 10.3466 21.0611 10.9468 22.2257L11.6187 23.5336C12.0666 24.4115 13.3118 24.4115 13.7598 23.5336L14.4316 22.2257C15.0318 21.0611 15.9814 20.1115 17.146 19.5113L18.4539 18.8394Z" fill="url(#paint1_linear_9_680)"/>
<path d="M35.2598 24.1965L33.9339 23.5157C32.3304 22.7005 31.0493 21.4194 30.2341 19.8159L29.5533 18.49C28.9531 17.3075 27.7527 16.573 26.4268 16.573C25.101 16.573 23.9006 17.3075 23.3004 18.49L22.6196 19.8159C21.8043 21.4194 20.5233 22.7005 18.9198 23.5157L17.5939 24.1965C16.4114 24.7967 15.6768 25.9971 15.6768 27.323C15.6768 28.6488 16.4114 29.8492 17.5939 30.4494L18.9198 31.1303C20.5233 31.9455 21.8043 33.2265 22.6196 34.83L23.3004 36.1559C23.9006 37.3384 25.101 38.073 26.4268 38.073C27.7527 38.073 28.9531 37.3384 29.5533 36.1559L30.2341 34.83C31.0493 33.2265 32.3304 31.9455 33.9339 31.1303L35.2598 30.4494C36.4423 29.8492 37.1768 28.6488 37.1768 27.323C37.1768 25.9971 36.4423 24.7967 35.2598 24.1965ZM34.0414 28.0575L32.7156 28.7384C30.6014 29.8134 28.9173 31.4975 27.8423 33.6117L27.1614 34.9375C26.9554 35.3407 26.5791 35.3855 26.4268 35.3855C26.2746 35.3855 25.8983 35.3407 25.6923 34.9375L25.0114 33.6117C23.9364 31.4975 22.2523 29.8134 20.1381 28.7384L18.8123 28.0575C18.4091 27.8515 18.3643 27.4753 18.3643 27.323C18.3643 27.1707 18.4091 26.7944 18.8123 26.5884L20.1381 25.9075C22.2523 24.8325 23.9364 23.1484 25.0114 21.0342L25.6923 19.7084C25.8983 19.3053 26.2746 19.2605 26.4268 19.2605C26.5791 19.2605 26.9554 19.3053 27.1614 19.7084L27.8423 21.0342C28.9173 23.1484 30.6014 24.8325 32.7156 25.9075L34.0414 26.5884C34.4446 26.7944 34.4893 27.1707 34.4893 27.323C34.4893 27.4753 34.4446 27.8515 34.0414 28.0575Z" fill="url(#paint2_linear_9_680)"/>
<defs>
<linearGradient id="paint0_linear_9_680" x1="21.7215" y1="5.3728" x2="21.7215" y2="38.073" gradientUnits="userSpaceOnUse">
<stop stop-color="#52FF61"/>
<stop offset="1" stop-color="#4CFFC3"/>
</linearGradient>
<linearGradient id="paint1_linear_9_680" x1="21.7215" y1="5.3728" x2="21.7215" y2="38.073" gradientUnits="userSpaceOnUse">
<stop stop-color="#52FF61"/>
<stop offset="1" stop-color="#4CFFC3"/>
</linearGradient>
<linearGradient id="paint2_linear_9_680" x1="21.7215" y1="5.3728" x2="21.7215" y2="38.073" gradientUnits="userSpaceOnUse">
<stop stop-color="#52FF61"/>
<stop offset="1" stop-color="#4CFFC3"/>
</linearGradient>
</defs>
</svg>
